<svg xmlns="http://www.w3.org/2000/svg" fill="none" viewBox="0 0 209 110">
    <path fill="currentColor" fill-rule="evenodd" d="M1.744 108.351h2.1027c.831 0 1.4956-.226 1.9796-.783.5737-.647.6057-1.715.6057-3.419 0-1.706-.032-2.772-.6057-3.419-.484-.557-1.1486-.7838-1.9796-.7838H1.744v8.4048zm-.6773-9.9555H4.049c1.4457 0 2.5047.484 3.2794 1.4624.808 1.0351.849 2.2461.849 4.2911s-.0577 3.273-.8644 4.307c-.7683.986-1.8183 1.447-3.264 1.447H1.0667c-.2587 0-.5673 0-.817-.251C0 109.402 0 109.095 0 108.836v-9.3751c0-.2587 0-.5647.2497-.8144.2497-.251.5583-.251.817-.251zM12.381 109.573c-.1307.234-.397.395-.744.395-.3483 0-.6147-.161-.7427-.395-.1217-.227-.1306-.365-.1306-.793v-9.2619c0-.4277.0089-.5647.1306-.7914.128-.2343.3944-.3956.7427-.3956.347 0 .6133.1613.744.3956.1216.2267.1293.3637.1293.7914v9.2619c0 .428-.0077.566-.1293.793zM17.2453 103.325h3.7993c.3726 0 .5339.016.7094.112.2125.121.3572.356.3572.663 0 .308-.1447.541-.3572.663-.1755.097-.3368.112-.7094.112h-3.7993v3.477h4.6226c.3714 0 .5327.015.7107.112.21.122.356.355.356.664 0 .306-.146.54-.356.662-.178.097-.3393.113-.7107.113h-5.3c-.2587 0-.5673 0-.817-.251-.2497-.25-.2497-.558-.2497-.816v-9.3748c0-.2587 0-.566.2497-.8157.2497-.251.5583-.251.817-.251h5.3c.3714 0 .5327.0167.7107.114.21.1204.356.3547.356.662s-.146.5417-.356.662c-.178.0974-.3393.114-.7107.114h-4.6226v3.3785zM31.9875 99.8335c-.1793.0973-.3406.114-.7133.114h-2.164v8.8315c0 .428-.0077.566-.1307.793-.128.234-.3943.396-.7439.396-.3458 0-.6121-.162-.7427-.396-.1204-.227-.1281-.365-.1281-.793v-8.8315h-2.1679c-.3713 0-.5327-.0167-.7094-.114-.21-.1216-.3573-.356-.3573-.6633s.1473-.5391.3573-.662c.1767-.0973.3381-.1127.7094-.1127h6.0773c.3727 0 .534.0154.7133.1127.21.1229.3547.3547.3547.662s-.1447.5417-.3547.6633zM35.9878 103.325h3.798c.3713 0 .5339.016.7107.112.2112.121.3559.356.3559.663 0 .308-.1447.541-.3559.663-.1768.097-.3394.112-.7107.112h-3.798v3.477h4.6226c.3714 0 .5327.015.7107.112.21.122.356.355.356.664 0 .306-.146.54-.356.662-.178.097-.3393.113-.7107.113h-5.3013c-.2587 0-.566 0-.8157-.251-.251-.25-.251-.558-.251-.816v-9.3748c0-.2587 0-.566.251-.8157.2497-.251.557-.251.8157-.251h5.3013c.3714 0 .5327.0167.7107.114.21.1204.356.3547.356.662s-.146.5417-.356.662c-.178.0974-.3393.114-.7107.114h-4.6226v3.3785zM45.7104 99.9475v3.6205h2.5867c1.1627 0 1.9553-.663 1.9553-1.794 0-1.14-.7926-1.8265-1.9553-1.8265h-2.5867zm-1.7453 8.8325v-9.3178c0-.2587 0-.566.251-.8157.2497-.251.557-.251.8157-.251h3.3946c2.182 0 3.5713 1.406 3.5713 3.3625 0 1.64-.9936 2.692-2.2793 3.055l2.0617 3.596c.1997.355.2663.5.274.72.0077.281-.1293.54-.4277.718-.146.088-.315.122-.47.122-.4353 0-.6376-.309-.8643-.712l-2.3997-4.203h-2.182v3.726c0 .428-.0077.565-.1306.793-.128.233-.3944.396-.744.396-.3457 0-.6133-.163-.7414-.396-.1216-.228-.1293-.365-.1293-.793zM63.9515 106.671c0-.518-.1306-.921-.4533-1.196-.2906-.259-.6799-.405-1.2523-.485l-1.365-.194c-.9297-.138-1.634-.429-2.1756-.929-.5737-.526-.849-1.269-.849-2.207 0-2.0038 1.4572-3.3612 3.8467-3.3612 1.0935 0 1.7543.1767 2.7082.6787.4047.21.703.5096.703.881 0 .1855-.0653.3715-.201.5325-.1306.154-.2996.251-.534.251-.1869 0-.4686-.105-.7043-.251-.6863-.4198-1.228-.5645-2.036-.5645-1.356 0-2.0846.7345-2.0846 1.7855 0 .42.1126.808.4212 1.067.2894.258.6301.419 1.2613.517l1.3715.21c1.0513.162 1.6339.404 2.1333.856.6159.566.9386 1.358.9386 2.36 0 2.118-1.712 3.378-4.1386 3.378-1.3817 0-2.246-.266-3.095-.776-.598-.356-.8157-.598-.8157-1.018 0-.193.0897-.42.2433-.574.1447-.145.324-.21.5084-.21.2266 0 .4277.072.7427.291.7773.534 1.4546.736 2.4509.736 1.5174 0 2.3753-.647 2.3753-1.778zM68.7597 99.4695c.744-.7427 1.7133-1.1716 2.9657-1.1716 1.4469 0 2.3113.4366 3.0143 1.1883.6466.6948.881 1.4378.881 1.8508 0 .298-.073.493-.2344.655-.1703.161-.3623.242-.6056.242-.2177 0-.3957-.073-.5174-.17-.1856-.145-.2996-.356-.4289-.655-.42-.986-1.0577-1.5592-2.1411-1.5592-.6786 0-1.2369.2672-1.6569.7192-.6057.655-.6864 1.39-.6864 3.58 0 2.19.0807 2.925.6864 3.58.42.453.9783.719 1.6569.719 1.0834 0 1.7211-.573 2.1411-1.559.1293-.3.2433-.51.4289-.655.1217-.097.2997-.17.5174-.17.2433 0 .4353.082.6056.242.1614.163.2344.356.2344.656 0 .412-.2344 1.155-.881 1.85-.703.752-1.5674 1.188-3.0143 1.188-1.2524 0-2.2217-.429-2.9657-1.172-1.1153-1.115-1.1563-2.263-1.1563-4.679 0-2.417.041-3.564 1.1563-4.6795zM84.5509 103.317v-3.7989c0-.4277.009-.566.1306-.7914.1281-.2343.3944-.3956.744-.3956.347 0 .6134.1613.744.3956.1191.2254.1268.3637.1268.7914v9.2619c0 .428-.0077.565-.1268.791-.1306.235-.397.396-.744.396-.3496 0-.6159-.161-.744-.396-.1216-.226-.1306-.363-.1306-.791v-3.912h-4.67v3.912c0 .428-.0077.565-.1306.791-.1281.235-.3957.396-.7427.396-.3483 0-.6147-.161-.744-.396-.1216-.226-.1293-.363-.1293-.791v-9.2619c0-.4277.0077-.566.1293-.7914.1293-.2343.3957-.3956.744-.3956.347 0 .6146.1613.7427.3956.1229.2254.1306.3637.1306.7914v3.7989h4.67zM95.3816 98.549c.1357.1371.219.2984.2984.5814l2.1013 7.5246 1.8426-7.403c.0974-.3892.146-.5326.292-.6953.1291-.137.3231-.2266.5571-.2266.373 0 .727.2433.807.566.05.1946.025.3636-.072.7516L98.88 108.99c-.0794.315-.1934.582-.4034.76-.178.146-.3893.217-.6223.217-.2344 0-.4444-.071-.6224-.217-.2112-.178-.3163-.445-.4033-.76l-2.0463-7.29-2.0424 7.29c-.0909.315-.1946.582-.4046.76-.1793.146-.3893.217-.6224.217-.2343 0-.4443-.071-.6236-.217-.21-.178-.3227-.445-.4033-.76l-2.3267-9.3423c-.0986-.388-.1217-.557-.073-.7516.0794-.3227.4366-.566.808-.566.233 0 .429.0896.557.2266.146.1627.1946.3061.292.6953l1.8401 7.403 2.1038-7.5246c.0807-.283.1614-.4443.2971-.5814.155-.1459.3406-.2112.598-.2112.2587 0 .4456.0653.5993.2112zM106.567 101.07l-1.842 5.035h3.684l-1.842-5.035zm-2.384 6.522l-.575 1.544c-.143.388-.216.531-.378.662a.747.747 0 01-.477.169c-.242 0-.484-.096-.639-.259-.331-.339-.226-.703-.055-1.155l3.521-9.3819c.123-.3317.211-.4687.348-.598.171-.1627.365-.242.639-.242.276 0 .469.0793.639.242.136.1293.226.2663.347.598l3.523 9.3819c.169.452.274.816-.056 1.155-.154.163-.396.259-.638.259a.7546.7546 0 01-.479-.169c-.161-.131-.233-.274-.378-.662l-.575-1.544h-4.767zM114.843 99.9475v3.6205h2.587c1.163 0 1.954-.663 1.954-1.794 0-1.14-.791-1.8265-1.954-1.8265h-2.587zm-1.745 8.8325v-9.3178c0-.2587 0-.566.251-.8157.248-.251.557-.251.816-.251h3.393c2.183 0 3.572 1.406 3.572 3.3625 0 1.64-.993 2.692-2.279 3.055l2.062 3.596c.201.355.266.5.275.72.007.281-.13.54-.43.718-.145.088-.315.122-.469.122-.435 0-.637-.309-.864-.712l-2.4-4.203h-2.182v3.726c0 .428-.008.565-.13.793-.128.233-.395.396-.744.396-.346 0-.613-.163-.743-.396-.12-.228-.128-.365-.128-.793zM129.285 98.3955c.371 0 .695.0231.922.2587.176.1767.257.3956.257.6377 0 .2343-.096.4622-.292.7771l-5.097 8.282h4.332c.371 0 .532.016.709.113.21.122.357.356.357.663 0 .308-.147.541-.357.663-.177.097-.338.113-.709.113h-5.312c-.371 0-.685-.024-.919-.259-.177-.177-.26-.396-.26-.638 0-.233.091-.437.299-.776l5.091-8.2825h-4.096c-.371 0-.534-.0167-.713-.114-.21-.1216-.356-.356-.356-.6633s.146-.5404.356-.662c.179-.0973.342-.1127.713-.1127h5.075zM142.095 106.671c0-.518-.13-.921-.453-1.196-.291-.259-.679-.405-1.251-.485l-1.366-.194c-.93-.138-1.634-.429-2.176-.929-.574-.526-.849-1.269-.849-2.207 0-2.0038 1.456-3.3612 3.848-3.3612 1.092 0 1.753.1767 2.707.6787.405.21.703.5096.703.881 0 .1855-.065.3715-.201.5325-.131.154-.3.251-.533.251-.188 0-.47-.105-.704-.251-.688-.4198-1.229-.5645-2.037-.5645-1.356 0-2.086.7345-2.086 1.7855 0 .42.114.808.422 1.067.29.258.63.419 1.26.517l1.373.21c1.051.162 1.634.404 2.133.856.616.566.939 1.358.939 2.36 0 2.118-1.712 3.378-4.139 3.378-1.381 0-2.246-.266-3.095-.776-.598-.356-.815-.598-.815-1.018 0-.193.089-.42.243-.574.145-.145.324-.21.507-.21.227 0 .429.072.744.291.777.534 1.455.736 2.45.736 1.518 0 2.376-.647 2.376-1.778zM152.787 99.8335c-.179.0973-.339.114-.712.114h-2.164v8.8315c0 .428-.01.566-.132.793-.127.234-.394.396-.743.396-.345 0-.613-.162-.742-.396-.122-.227-.13-.365-.13-.793v-8.8315h-2.166c-.372 0-.534-.0167-.71-.114-.211-.1216-.357-.356-.357-.6633s.146-.5391.357-.662c.176-.0973.338-.1127.71-.1127h6.077c.373 0 .533.0154.712.1127.21.1229.355.3547.355.662s-.145.5417-.355.6633zM156.658 109.573c-.13.234-.396.395-.743.395-.349 0-.615-.161-.744-.395-.121-.227-.129-.365-.129-.793v-9.2619c0-.4277.008-.5647.129-.7914.129-.2343.395-.3956.744-.3956.347 0 .613.1613.743.3956.122.2267.13.3637.13.7914v9.2619c0 .428-.008.566-.13.793zM161.524 103.479h3.798c.372 0 .533.016.711.113.21.121.356.356.356.663 0 .307-.146.541-.356.662-.178.097-.339.113-.711.113h-3.798v3.75c0 .428-.009.566-.129.793-.129.233-.396.395-.744.395-.347 0-.615-.162-.744-.395-.12-.227-.128-.365-.128-.793v-9.3181c0-.2587 0-.5647.25-.8157.251-.2497.558-.2497.817-.2497h5.301c.371 0 .533.0154.711.1127.21.1203.356.3547.356.662s-.146.5417-.356.6633c-.178.0973-.34.1127-.711.1127h-4.623v3.5318zM175.983 99.8335c-.18.0973-.341.114-.712.114h-2.165v8.8315c0 .428-.008.566-.131.793-.128.234-.395.396-.743.396-.347 0-.613-.162-.744-.396-.12-.227-.128-.365-.128-.793v-8.8315h-2.167c-.372 0-.534-.0167-.71-.114-.21-.1216-.356-.356-.356-.6633s.146-.5391.356-.662c.176-.0973.338-.1127.71-.1127h6.078c.371 0 .532.0154.712.1127.21.1229.354.3547.354.662s-.144.5417-.354.6633zM178.06 106.024v-6.5059c0-.4277.009-.566.13-.7914.128-.2343.395-.3956.743-.3956.347 0 .613.1613.744.3956.12.2254.128.3637.128.7914v6.4259c0 1.541.939 2.504 2.377 2.504 1.438 0 2.375-.963 2.375-2.504v-6.4259c0-.4277.009-.566.129-.7914.13-.2343.396-.3956.744-.3956.347 0 .615.1613.743.3956.123.2254.129.3637.129.7914v6.5059c0 2.376-1.777 3.975-4.12 3.975-2.342 0-4.122-1.599-4.122-3.975zM190.861 108.779c0 .428-.009.566-.129.793-.128.233-.395.395-.744.395-.346 0-.612-.162-.743-.395-.12-.227-.128-.365-.128-.793v-9.3336c0-.3803.056-.6467.248-.84.18-.1793.399-.2753.665-.2753.412 0 .67.2497 1.018.7683l4.994 7.3786v-6.9599c0-.4277.009-.5647.128-.7913.129-.2344.396-.3957.744-.3957.347 0 .613.1613.744.3957.12.2266.129.3636.129.7913v9.3429c0 .38-.057.639-.249.832-.18.178-.397.275-.664.275-.412 0-.671-.251-1.019-.768l-4.994-7.378v6.958zM202.798 107.729c.42.452 1.011.719 1.714.719.678 0 1.26-.251 1.705-.695.533-.549.655-1.172.655-2.384h-1.455c-.373 0-.534-.016-.712-.113-.21-.121-.355-.356-.355-.663 0-.306.145-.541.355-.662.178-.097.339-.113.712-.113h2.068c.259 0 .566 0 .817.25.25.251.25.558.25.816v.17c0 1.876-.194 2.86-1.09 3.758-.8.799-1.73 1.187-2.95 1.187-1.269 0-2.24-.428-2.983-1.171-1.115-1.115-1.155-2.263-1.155-4.679 0-2.417.04-3.564 1.155-4.6795.743-.7427 1.714-1.1716 2.966-1.1716 1.447 0 2.311.4366 3.014 1.1883.647.6938.881 1.4378.881 1.8508 0 .298-.073.492-.234.654-.169.162-.364.243-.606.243-.217 0-.395-.073-.517-.17-.186-.146-.298-.356-.428-.655-.42-.986-1.059-1.5605-2.142-1.5605-.679 0-1.237.2675-1.657.7205-.606.655-.686 1.39-.686 3.58 0 2.279.105 2.974.678 3.58zM.0168 0v91.3492H177.717V45.6746h30.834V0H.0168zm7.0494 63.349c0-7.2272 3.871-11.3146 11.2275-11.3146 1.8926 0 4.7328.388 6.9263 2.109 2.8402 2.2357 3.1833 6.108 3.2691 8.646h-6.9263l-.0003-.011c-.0423-1.5533-.1358-4.9792-3.5697-4.9792-.8605 0-1.9362.3445-2.6238.9886-1.1192 1.0334-1.1614 2.5815-1.1614 3.442V74.232c0 1.721 0 5.0337 3.8287 5.0337 2.8389 0 3.6994-2.3228 3.6994-5.7213h6.9686c-.0435 2.2757-.0857 2.5372-.2999 3.8647l-.0011.0063-.0147.0712c-.2608 1.2626-.7221 3.4961-3.2979 5.5643-2.2371 1.8068-5.5062 2.1078-6.8828 2.1078-3.6571 0-6.1951-.8605-8.1735-2.7954-1.2908-1.2472-2.9682-3.054-2.9682-9.5078V63.349zm36.273-4.9902h.1716l3.4856 14.2828h-7.0992l3.442-14.2828zM56.718 84.2994l-9.1198-31.5761h-8.3873l-8.906 31.5761h6.7534l1.6352-6.2809h9.6794l1.5904 6.2809h6.7547zm3.1819-31.5759h9.2926l3.743 13.1637c.1434.528.2574.9251.3618 1.2888l.0006.0019.0001.0003c.1759.6127.3247 1.1311.5415 2.0217.1716.6453.8157 3.3972.945 3.9567h.2152c.4725-2.6237.9463-4.6034 1.721-7.3988l3.6994-13.0343h9.3349v31.5749h-6.0658V67.306c0-2.0326.1418-5.3108.2648-8.1529V59.1524l.0361-.8369h-.1703L77.279 84.2984h-4.7738l-6.7111-25.9829h-.2152c.0135.454.0475 1.3847.088 2.4924l.0001.002c.0899 2.4603.2116 5.7923.2116 6.7112v16.7773h-5.9787V52.7235zM108.164 66.833c-.816.3444-2.063.3444-5.376.3444v-9.2491c4.174 0 4.688 0 5.807.4302.945.3867 2.109 1.0321 2.109 4.0861 0 3.2269-1.979 4.1732-2.54 4.3884zm-1.934-14.11H95.8198v31.5761h6.9682V72.4685l3.786-.1293c2.452-.0858 4.946-.2152 7.227-1.5917 1.42-.8605 4.129-3.1834 4.129-8.0865 0-3.1398-.904-5.679-2.882-7.4436-1.676-1.5059-4.173-2.4944-8.818-2.4944zm16.13.0005h7.184v20.8199c0 1.8938 0 5.8084 4.26 5.8084 1.334 0 4.429 0 4.429-5.7649V52.7235h7.012v20.9069c0 1.8926-.042 6.4525-3.269 9.0763-2.193 1.7646-4.904 2.4099-7.785 2.4099-3.313 0-6.712-.8182-8.648-2.625-3.052-2.8812-3.183-6.4961-3.183-9.335V52.7235zm37.639 4.9468c2.453 0 4.476 1.6339 5.464 3.5278l5.206-3.442c-2.581-3.7852-5.852-5.6778-10.497-5.6778-6.494 0-10.281 3.7429-10.281 8.9482 0 6.2374 4.13 8.3451 8.905 10.1942 4.731 1.8503 6.021 2.3664 6.021 4.7328 0 2.8824-2.709 3.5713-4.216 3.5713-2.708 0-4.817-1.6352-5.978-4.3025l-5.377 3.5701c2.84 5.0759 6.108 6.4102 11.656 6.4102 1.594 0 4.216-.4738 6.067-1.5917 4.474-2.7108 4.474-6.9263 4.474-8.3464 0-2.9682-1.376-5.0324-1.763-5.5497-1.25-1.7197-3.485-3.0105-5.378-3.6981l-4-1.4637c-1.935-.6876-4.001-1.5916-4.001-3.8287 0-.3432.085-3.054 3.698-3.054zM13.8201 33.6346h3.442c2.7531 0 4.4728-1.2908 4.4728-4.5164 0-1.5058-.3867-3.2704-2.0219-3.958-.9885-.3867-3.4407-.3867-5.8929-.3867v8.8611zm0-13.7232c5.5497 0 7.3565-.1716 7.3565-4.172 0-3.8287-2.7966-3.8287-4.2167-3.8287h-3.1398v8.0007zM7.0667 7.0499h10.4105c2.7096 0 5.3334.1716 7.1402 1.2895 2.3228 1.42 3.3985 4.0874 3.3985 6.7111 0 3.8288-1.8926 6.2809-4.3448 6.8405v.2152c2.1077.3009 5.0337 2.5802 5.0337 7.2259 0 2.3241-.3445 4.6892-2.4522 6.7969-2.2806 2.3242-4.9902 2.4958-8.9905 2.4958H7.0667V7.0498zm46.2447-.0003h-7.0557v31.5762h20.9505v-5.8942H53.3114V7.0496zm24.3468 25.9397h1.9784c2.7966 0 5.6355-.516 5.6355-6.5818 0-.5378.0218-1.237.0436-1.9361.0217-.6992.0435-1.3983.0435-1.9362 0-3.7852-.0871-6.4089-1.1627-7.9583-1.333-1.9349-2.8376-1.9349-6.5383-1.9349v20.3473zM70.6038 7.0487h7.6575c7.6997 0 10.4106 1.4636 12.2174 4.0874 1.3753 2.022 1.8913 4.2155 1.8913 11.3134l-.0423 5.3781c0 3.5701-.8605 7.3553-4.3447 9.1198-2.2806 1.1614-4.2155 1.3766-6.7547 1.5917-.9028.0858-5.4192.0858-10.6245.0858V7.0487zm34.3272.001h-7.1835v20.4331c0 2.8401.1294 6.4538 3.1825 9.3349 1.936 1.8081 5.334 2.6251 8.647 2.6251 2.882 0 5.592-.6454 7.785-2.41 3.229-2.6237 3.27-7.1836 3.27-9.0762V7.0496h-7.011V27.913c0 5.7649-3.098 5.7649-4.431 5.7649-4.259 0-4.259-3.9145-4.259-5.8071V7.0496zm21.766 0h6.625l8.13 14.7553c.343.6453.775 1.5059 1.074 2.1512.057.1129.172.3997.293.7042.156.3899.324.809.396.9298h.215l-.17-3.1834c-.131-2.15-.131-2.4086-.131-3.6136V7.0496h6.368v31.5762h-5.679l-8.388-15.3149c-.642-1.1617-.724-1.3536-2.051-4.4677v-.0004l-.314-.7372h-.215c.042.9027.215 4.9043.215 5.7213v14.7989h-6.368V7.0496zm31.144 1.8496c-3.27 3.0118-3.27 7.0121-3.27 9.8087v8.5603c0 3.9145.431 6.5395 2.152 8.7331 2.065 2.5815 4.99 3.4842 8.173 3.4842 4.86 0 6.28-1.6352 7.184-2.7095h.301l.903 2.1935h3.098V22.1065h-10.583v5.2476h3.699v2.1512c0 1.1614 0 4.1297-3.613 4.1297-3.397 0-4.172-2.538-4.172-6.6677v-9.9367c0-1.8504.257-4.9479 3.871-4.9479 2.366 0 3.785 1.2907 3.914 4.0874h6.884c0-6.1094-4.259-9.7652-10.239-9.7652-3.055 0-5.894.3009-8.302 2.4944zm38.457 6.625c-.99-1.8926-3.013-3.5278-5.464-3.5278-3.613 0-3.699 2.7108-3.699 3.054 0 2.2371 2.065 3.1411 4 3.8287l4.002 1.4637c1.892.6876 4.129 1.9784 5.377 3.6994.386.516 1.763 2.5802 1.763 5.5484 0 1.4201 0 5.6356-4.473 8.3464-1.851 1.1179-4.474 1.5917-6.068 1.5917-5.549 0-8.817-1.3343-11.655-6.4103l5.376-3.57c1.162 2.6673 3.27 4.3012 5.98 4.3012 1.506 0 4.216-.6876 4.216-3.5701 0-2.3664-1.291-2.8824-6.024-4.7315-4.775-1.8503-8.904-3.958-8.904-10.1954 0-5.2053 3.786-8.9482 10.282-8.9482 4.646 0 7.915 1.8926 10.495 5.6778l-5.204 3.442zM40.1919 38.609h-7.0556V7.0328h7.0556V38.609z" clip-rule="evenodd"></path>
</svg>